<?xml version="1.0" encoding="utf-8"?>
<!-- Generator: Adobe Illustrator 23.0.5, SVG Export Plug-In . SVG Version: 6.00 Build 0)  -->
<svg version="1.1" id="Camada_1" xmlns="http://www.w3.org/2000/svg" xmlns:xlink="http://www.w3.org/1999/xlink" x="0px" y="0px"
	 viewBox="0 0 24 24" style="enable-background:new 0 0 24 24;" xml:space="preserve">
<style type="text/css">
	.st0{fill-rule:evenodd;clip-rule:evenodd;fill:#181818;}
</style>
<g>
	<path id="icon" class="st0" d="M6,6h2V5h8v1h2V5h2v3H4V5h2V6z M4,10v10h10v2H4c-1.1,0-2-0.9-2-2V5c0-1.1,0.9-2,2-2h2V2h2v1h8V2h2v1
		h2c1.1,0,2,0.9,2,2v9h-2v-4H4z M21,19v-2h-2v2h-2v2h2v2h2v-2h2v-2H21z"/>
</g>
</svg>
