<?xml version="1.0" encoding="utf-8"?>
<!-- Generator: Adobe Illustrator 23.0.5, SVG Export Plug-In . SVG Version: 6.00 Build 0)  -->
<svg version="1.1" id="Camada_1" xmlns="http://www.w3.org/2000/svg" xmlns:xlink="http://www.w3.org/1999/xlink" x="0px" y="0px"
	 viewBox="0 0 512 512" style="enable-background:new 0 0 512 512;" xml:space="preserve">
<style type="text/css">
	.st0{fill:#181818;}
</style>
<g>
	<path class="st0" d="M429.8,34.5h-348c-36.4,0-66,29.6-66,66v213c0,36.3,29.5,65.9,65.8,66v96.6l138.9-96.6h209.4
		c36.4,0,66-29.6,66-66v-213C495.8,64.1,466.1,34.5,429.8,34.5z M467.6,313.5c0,20.9-17,37.9-37.9,37.9H211.6l-101.9,70.9v-70.9h-28
		c-20.9,0-37.9-17-37.9-37.9v-213c0-20.9,17-37.9,37.9-37.9h348c20.9,0,37.9,17,37.9,37.9V313.5z"/>
	<path class="st0" d="M144.2,133.9h223.1V162H144.2V133.9z"/>
	<path class="st0" d="M144.2,193.9h223.1V222H144.2V193.9z"/>
	<path class="st0" d="M144.2,253.9h223.1V282H144.2V253.9z"/>
</g>
</svg>
