<?xml version="1.0" encoding="utf-8"?>
<!-- Generator: Adobe Illustrator 23.0.5, SVG Export Plug-In . SVG Version: 6.00 Build 0)  -->
<svg version="1.1" id="Camada_1" xmlns="http://www.w3.org/2000/svg" xmlns:xlink="http://www.w3.org/1999/xlink" x="0px" y="0px"
	 viewBox="0 0 512 512" style="enable-background:new 0 0 512 512;" xml:space="preserve">
<style type="text/css">
	.st0{fill:#181818;}
</style>
<g>
	<path class="st0" d="M499.2,221.7L499.2,221.7L290.3,12.8C281.4,3.9,269.6-1,257-1s-24.4,4.9-33.3,13.8L14.9,221.6
		c-0.1,0.1-0.1,0.1-0.2,0.2c-18.3,18.4-18.3,48.2,0.1,66.6c8.4,8.4,19.4,13.2,31.3,13.7c0.5,0,1,0.1,1.5,0.1h8.3v153.7
		c0,30.4,24.8,55.2,55.2,55.2h81.7c8.3,0,15-6.7,15-15V375.5c0-13.9,11.3-25.2,25.2-25.2h48.2c13.9,0,25.2,11.3,25.2,25.2V496
		c0,8.3,6.7,15,15,15H403c30.4,0,55.2-24.7,55.2-55.2V302.1h7.7c12.6,0,24.4-4.9,33.3-13.8C517.5,270,517.5,240.1,499.2,221.7z
		 M478,267.1c-3.2,3.2-7.5,5-12.1,5h-22.7c-8.3,0-15,6.7-15,15v168.7c0,13.9-11.3,25.2-25.2,25.2h-66.7V375.5
		c0-30.4-24.7-55.2-55.2-55.2h-48.2c-30.4,0-55.2,24.8-55.2,55.2V481H111c-13.9,0-25.2-11.3-25.2-25.2V287.1c0-8.3-6.7-15-15-15
		H48.5c-0.2,0-0.5,0-0.7,0c-4.5-0.1-8.7-1.9-11.8-5c-6.7-6.7-6.7-17.6,0-24.2l0,0l0,0L244.9,34c3.2-3.2,7.5-5,12.1-5s8.9,1.8,12.1,5
		l208.8,208.8l0.1,0.1C484.6,249.6,484.6,260.4,478,267.1z"/>
</g>
</svg>
