<?xml version="1.0" encoding="utf-8"?>
<!-- Generator: Adobe Illustrator 23.0.5, SVG Export Plug-In . SVG Version: 6.00 Build 0)  -->
<svg version="1.1" id="Camada_1" xmlns="http://www.w3.org/2000/svg" xmlns:xlink="http://www.w3.org/1999/xlink" x="0px" y="0px"
	 viewBox="0 0 24 24" style="enable-background:new 0 0 24 24;" xml:space="preserve">
<style type="text/css">
	.st0{fill-rule:evenodd;clip-rule:evenodd;fill:#181818;}
</style>
<g>
	<path id="icon" class="st0" d="M4,2h16c1.1,0,2,0.9,2,2v16c0,1.1-0.9,2-2,2H4c-1.1,0-2-0.9-2-2V4C2,2.9,2.9,2,4,2z M4,4v11.6l4-4
		l3.5,3.5L18,8.6l2,2V4H4z M4,20v-1.6l4-4l5.6,5.6H4z M20,20h-3.6l-3.5-3.5l5.1-5.1l2,2V20z M14,8c0-1.7-1.3-3-3-3C9.3,5,8,6.3,8,8
		s1.3,3,3,3C12.7,11,14,9.7,14,8z M10,8c0-0.6,0.4-1,1-1s1,0.4,1,1s-0.4,1-1,1S10,8.6,10,8z"/>
</g>
</svg>
