<?xml version="1.0" encoding="utf-8"?>
<!-- Generator: Adobe Illustrator 23.0.5, SVG Export Plug-In . SVG Version: 6.00 Build 0)  -->
<svg version="1.1" id="Camada_1" xmlns="http://www.w3.org/2000/svg" xmlns:xlink="http://www.w3.org/1999/xlink" x="0px" y="0px"
	 viewBox="0 0 24 24" style="enable-background:new 0 0 24 24;" xml:space="preserve">
<style type="text/css">
	.st0{fill-rule:evenodd;clip-rule:evenodd;fill:#181818;}
</style>
<g>
	<path id="icon" class="st0" d="M12,23C5.9,23,1,18.1,1,12C1,5.9,5.9,1,12,1c6.1,0,11,4.9,11,11C23,18.1,18.1,23,12,23z M12,21
		c5,0,9-4,9-9c0-5-4-9-9-9c-5,0-9,4-9,9C3,17,7,21,12,21z M16.9,15.4l-1.6-1.2c-0.7,1.1-2,1.7-3.3,1.7s-2.5-0.6-3.3-1.7l-1.6,1.2
		C8.2,17,10,18,12,18S15.8,17,16.9,15.4z M14,11V9h2v2H14z M8,9v2h2V9H8z"/>
</g>
</svg>
