<?xml version="1.0" encoding="utf-8"?>
<!-- Generator: Adobe Illustrator 23.0.5, SVG Export Plug-In . SVG Version: 6.00 Build 0)  -->
<svg version="1.1" id="Camada_1" xmlns="http://www.w3.org/2000/svg" xmlns:xlink="http://www.w3.org/1999/xlink" x="0px" y="0px"
	 viewBox="0 0 24 24" style="enable-background:new 0 0 24 24;" xml:space="preserve">
<style type="text/css">
	.st0{fill-rule:evenodd;clip-rule:evenodd;fill:#181818;}
</style>
<g>
	<path id="icon" class="st0" d="M9,4h12c1.1,0,2,0.9,2,2v13c0,1.1-0.9,2-2,2H9H7H3c-1.1,0-2-0.9-2-2V6c0-1.1,0.9-2,2-2h4H9z M7,6H3
		v3h4V6z M9,9V6h12v3H9z M7,11H3v3h4V11z M9,14v-3h12v3H9z M7,16H3v3h4V16z M9,19v-3h12v3H9z"/>
</g>
</svg>
